<?xml version="1.0" encoding="utf-8"?>
<!-- Generator: Adobe Illustrator 24.3.2, SVG Export Plug-In . SVG Version: 6.00 Build 0)  -->
<svg version="1.1" id="Layer_1" xmlns="http://www.w3.org/2000/svg" xmlns:xlink="http://www.w3.org/1999/xlink" x="0px" y="0px"
	 viewBox="0 0 685 572" style="enable-background:new 0 0 685 572;" xml:space="preserve">
<style type="text/css">
	.st0{fill:#B1DCD2;}
</style>
<path id="Path_38" class="st0" d="M-0.2,72.4L130.9-0.3l54.5,66.7c20.9,25.6,47.7,46.2,78.7,57.4c27.1,9.7,61.7,14.6,101.5,3.8
	c99.6-27.1,153.4-56.9,175.2-17.4c14.7,26.5-10.9,65.6-35.4,99.8c-21.9,30.5-23.5,71.4-3.5,103.2c8.2,13,18.4,25.9,30.7,36
	c84.7,69,124,103,124,103l28.8,79.6l-73.3,40.6L421.9,419.9c0,0-78.9-51-36.2-120.6c34.8-56.9,115.6-127.3,92.7-154.5
	c-19.9-23.7-137.2,91.3-214,83.3C163.2,217.6-0.2,72.4-0.2,72.4z"/>
</svg>
