<?xml version="1.0" encoding="utf-8"?>
<!-- Generator: Adobe Illustrator 26.5.0, SVG Export Plug-In . SVG Version: 6.00 Build 0)  -->
<svg version="1.1" id="Layer_1" xmlns="http://www.w3.org/2000/svg" xmlns:xlink="http://www.w3.org/1999/xlink" x="0px" y="0px"
	 viewBox="0 0 1412.7 1355.8" style="enable-background:new 0 0 1412.7 1355.8;" xml:space="preserve">
<style type="text/css">
	.st0{fill:#94DECF;}
</style>
<path id="Path_234" class="st0" d="M2,725.4l113.2-220.5l136.1,41.4c52.2,15.9,108,19.6,160.9,6.4c46.2-11.6,98.1-36.7,142.8-88.2
	c111.8-128.8,158.3-219.2,224.6-185.1c44.6,22.9,45.4,100.2,43.2,169.6c-1.9,62.1,33.5,119.6,90.2,145
	c23.2,10.4,49.1,18.7,75.2,21.2c179.8,16.8,265,27.4,265,27.4l112.7,82.8l-63.3,123.2l-401.5-34.2c0,0-155.2,2.6-160.7-132.2
	c-4.5-110.1,41.6-281.1-14.8-297.5c-49.2-14.2-104.3,251.5-217.2,311.3C359.8,774.3,2,725.4,2,725.4z"/>
</svg>
