<?xml version="1.0" encoding="UTF-8"?><svg id="Layer_1" xmlns="http://www.w3.org/2000/svg" viewBox="0 0 70.65 50"><defs><style>.cls-1{fill:#fff;}.cls-2{fill:#1c1c1a;}</style></defs><path class="cls-2" d="M54.73,10.22H14.97c-.17,0-.33,0-.5,0-.14,0-.28,0-.42,0-.3,0-.61,.03-.91,.08-.31,.05-.59,.14-.87,.29-.27,.14-.52,.32-.74,.54-.22,.22-.4,.46-.54,.74-.14,.28-.23,.56-.29,.87-.05,.3-.07,.61-.08,.91,0,.14,0,.28,0,.42,0,.17,0,.33,0,.5v22.33c0,.17,0,.33,0,.5,0,.14,0,.28,0,.42,0,.3,.03,.61,.08,.91,.05,.31,.14,.59,.29,.87,.14,.27,.32,.52,.54,.74,.22,.22,.47,.4,.74,.54,.28,.14,.56,.23,.87,.29,.3,.05,.61,.07,.91,.08,.14,0,.28,0,.42,0,.17,0,.33,0,.5,0H54.73c.17,0,.33,0,.5,0,.14,0,.28,0,.42,0,.3,0,.61-.03,.91-.08,.3-.05,.59-.14,.87-.29,.27-.14,.52-.32,.74-.54,.22-.22,.4-.46,.54-.74,.14-.28,.23-.56,.29-.87,.05-.3,.07-.61,.08-.91,0-.14,0-.28,0-.42,0-.17,0-.33,0-.5V14.56c0-.17,0-.33,0-.5,0-.14,0-.28,0-.42,0-.3-.03-.61-.08-.91-.05-.31-.14-.59-.29-.87-.14-.27-.32-.52-.54-.74-.22-.22-.46-.4-.74-.54-.28-.14-.56-.23-.87-.29-.3-.05-.61-.07-.91-.08-.14,0-.28,0-.42,0-.17,0-.33,0-.5,0h0Z"/><path class="cls-1" d="M54.73,11.26h.49c.13,0,.26,0,.4,0,.23,0,.5,.02,.76,.06,.22,.04,.4,.1,.58,.19,.17,.09,.33,.2,.47,.34,.14,.14,.26,.3,.35,.48,.09,.18,.15,.36,.19,.58,.05,.25,.06,.52,.06,.75,0,.13,0,.26,0,.4,0,.16,0,.33,0,.49v22.33c0,.16,0,.33,0,.49,0,.13,0,.26,0,.4,0,.23-.02,.5-.06,.76-.04,.22-.1,.4-.19,.58-.09,.18-.21,.34-.35,.48-.14,.14-.3,.26-.48,.35-.18,.09-.36,.15-.58,.19-.26,.05-.54,.06-.75,.06-.13,0-.27,0-.4,0-.16,0-.33,0-.49,0H14.96c-.16,0-.32,0-.49,0-.13,0-.27,0-.4,0-.22,0-.5-.02-.76-.06-.22-.04-.4-.1-.58-.19-.17-.09-.33-.2-.47-.35-.14-.14-.26-.3-.34-.47-.09-.18-.15-.36-.19-.58-.05-.25-.06-.52-.06-.75,0-.13,0-.26,0-.4v-.39s0-.1,0-.1V14.46s0-.39,0-.39c0-.13,0-.26,0-.4,0-.23,.02-.5,.06-.76,.04-.22,.1-.4,.19-.58,.09-.17,.2-.33,.35-.47,.14-.14,.3-.26,.48-.35,.18-.09,.36-.15,.58-.19,.25-.05,.52-.06,.76-.06,.13,0,.26,0,.4,0h.49s39.76,0,39.76,0"/><g><g><path class="cls-2" d="M23.85,20.65c.41-.52,.7-1.22,.62-1.93-.61,.03-1.35,.4-1.78,.92-.39,.44-.73,1.17-.64,1.85,.68,.06,1.36-.34,1.79-.84"/><path class="cls-2" d="M24.47,21.63c-.99-.06-1.83,.56-2.3,.56s-1.2-.53-1.98-.52c-1.02,.01-1.96,.59-2.48,1.51-1.06,1.83-.28,4.55,.75,6.04,.5,.74,1.11,1.55,1.9,1.52,.75-.03,1.05-.49,1.96-.49s1.18,.49,1.98,.47c.83-.01,1.34-.74,1.85-1.48,.58-.84,.81-1.65,.83-1.7-.01-.01-1.59-.62-1.61-2.44-.01-1.52,1.24-2.25,1.3-2.29-.71-1.05-1.82-1.17-2.2-1.2"/></g><g><path class="cls-2" d="M33.08,19.57c2.15,0,3.65,1.48,3.65,3.64s-1.53,3.66-3.7,3.66h-2.38v3.79h-1.72v-11.09h4.16Zm-2.44,5.85h1.97c1.5,0,2.35-.81,2.35-2.2s-.85-2.2-2.34-2.2h-1.98v4.4Z"/><path class="cls-2" d="M37.18,28.36c0-1.41,1.08-2.28,3-2.39l2.21-.13v-.62c0-.9-.61-1.44-1.62-1.44-.96,0-1.56,.46-1.71,1.18h-1.57c.09-1.46,1.34-2.54,3.33-2.54s3.21,1.04,3.21,2.66v5.57h-1.59v-1.33h-.04c-.47,.9-1.49,1.47-2.55,1.47-1.58,0-2.69-.98-2.69-2.44Zm5.22-.73v-.64l-1.99,.12c-.99,.07-1.55,.51-1.55,1.2s.58,1.17,1.47,1.17c1.16,0,2.07-.8,2.07-1.85Z"/><path class="cls-2" d="M45.55,33.63v-1.34c.12,.03,.4,.03,.54,.03,.77,0,1.18-.32,1.44-1.15,0-.02,.15-.49,.15-.5l-2.92-8.09h1.8l2.04,6.58h.03l2.04-6.58h1.75l-3.03,8.5c-.69,1.96-1.49,2.59-3.16,2.59-.14,0-.55-.02-.68-.04Z"/></g></g></svg>