<?xml version="1.0" encoding="UTF-8"?><svg id="Layer_1" xmlns="http://www.w3.org/2000/svg" viewBox="0 0 74.35 50"><defs><style>.cls-1{fill:#fff;}.cls-2{fill:#f0bb42;}.cls-3{fill:#d64f3f;}.cls-4{fill:#5285eb;}.cls-5{fill:#58a45c;}.cls-6{fill:#3d4043;}</style></defs><path id="Base" class="cls-1" d="M50.2,10.68H23.64c-8.3,0-15.09,6.79-15.09,15.09h0c0,8.3,6.79,15.09,15.09,15.09h26.56c8.3,0,15.09-6.79,15.09-15.09h0c0-8.3-6.79-15.09-15.09-15.09Z"/><path id="Outline" class="cls-6" d="M50.41,11.59c1.91,0,3.76,.38,5.51,1.12,1.69,.72,3.21,1.75,4.52,3.05,1.31,1.31,2.33,2.83,3.05,4.52,.74,1.75,1.12,3.6,1.12,5.51s-.38,3.76-1.12,5.51c-.72,1.69-1.75,3.21-3.05,4.52-1.31,1.31-2.83,2.33-4.52,3.05-1.75,.74-3.6,1.12-5.51,1.12H23.21c-1.91,0-3.76-.38-5.51-1.12-1.69-.72-3.21-1.75-4.52-3.05-1.31-1.31-2.33-2.83-3.05-4.52-.74-1.75-1.12-3.6-1.12-5.51s.38-3.76,1.12-5.51c.72-1.69,1.75-3.21,3.05-4.52,1.31-1.31,2.83-2.33,4.52-3.05,1.75-.74,3.6-1.12,5.51-1.12h27.2m0-1.25H23.21c-8.5,0-15.45,6.95-15.45,15.45h0c0,8.5,6.95,15.45,15.45,15.45h27.2c8.5,0,15.45-6.95,15.45-15.45h0c0-8.5-6.95-15.45-15.45-15.45h0Z"/><g id="G_Pay_Lockup"><g id="Pay_Typeface"><path id="Letter_p" class="cls-6" d="M35.46,26.89v4.67h-1.48v-11.54h3.93c1,0,1.85,.33,2.54,1,.71,.66,1.07,1.48,1.07,2.43s-.36,1.79-1.07,2.45c-.69,.66-1.54,.98-2.54,.98h-2.45Zm0-5.44v4.03h2.48c.59,0,1.08-.2,1.47-.59,.39-.39,.59-.87,.59-1.41s-.2-1-.59-1.4c-.39-.41-.87-.61-1.47-.61h-2.48Z"/><path id="Letter_a" class="cls-6" d="M45.4,23.41c1.1,0,1.96,.29,2.6,.88,.63,.59,.95,1.39,.95,2.41v4.87h-1.41v-1.1h-.06c-.61,.9-1.43,1.35-2.45,1.35-.87,0-1.6-.25-2.19-.77s-.88-1.16-.88-1.93c0-.82,.31-1.47,.93-1.95,.62-.49,1.44-.73,2.47-.73,.88,0,1.61,.16,2.17,.49v-.34c0-.52-.2-.95-.61-1.31-.41-.36-.89-.54-1.44-.54-.83,0-1.48,.35-1.96,1.05l-1.31-.82c.72-1.04,1.78-1.56,3.19-1.56Zm-1.92,5.73c0,.39,.16,.71,.49,.97,.32,.25,.71,.39,1.15,.39,.63,0,1.18-.23,1.67-.7s.73-1,.73-1.63c-.46-.36-1.1-.55-1.93-.55-.6,0-1.1,.15-1.51,.43-.41,.3-.61,.66-.61,1.09Z"/><path id="Letter_y" class="cls-6" d="M57.01,23.66l-4.95,11.37h-1.53l1.84-3.98-3.26-7.39h1.61l2.35,5.67h.03l2.29-5.67h1.61Z"/></g><g id="G_Mark"><path id="Blue_500" class="cls-4" d="M29.56,25.95c0-.48-.04-.95-.12-1.39h-6.22v2.55h3.58c-.15,.85-.61,1.57-1.33,2.05v1.65h2.13c1.24-1.15,1.96-2.86,1.96-4.87Z"/><path id="Green_500" class="cls-5" d="M25.47,29.16c-.59,.4-1.36,.63-2.25,.63-1.73,0-3.19-1.16-3.72-2.73h-2.2v1.71c1.09,2.16,3.33,3.65,5.92,3.65,1.79,0,3.29-.59,4.38-1.6l-2.13-1.65Z"/><path id="Yellow_500" class="cls-2" d="M19.3,25.8c0-.44,.07-.87,.21-1.27v-1.71h-2.2c-.45,.89-.7,1.9-.7,2.97s.25,2.08,.7,2.97l2.2-1.71c-.13-.4-.21-.83-.21-1.27Z"/><path id="Red_500" class="cls-3" d="M23.22,21.8c.98,0,1.85,.34,2.54,.99l1.89-1.89c-1.15-1.07-2.64-1.72-4.43-1.72-2.59,0-4.83,1.48-5.92,3.65l2.2,1.71c.52-1.57,1.99-2.73,3.72-2.73Z"/></g></g></svg>