<svg id="Layer_1" data-name="Layer 1" xmlns="http://www.w3.org/2000/svg" viewBox="0 0 30 30">
  <defs>
    <style>
      .cls-1 {
        fill: #e9cabd;
      }
    </style>
  </defs>
  <path id="Path_2" data-name="Path 2" d="M21.8,2.19a7.35,7.35,0,0,0-6.08,3.36A11.44,11.44,0,0,0,15,6.72a11.44,11.44,0,0,0-.72-1.17A7.3,7.3,0,0,0,2.62,4.71,8.75,8.75,0,0,0,.5,10.55a10.78,10.78,0,0,0,3,7.06,66,66,0,0,0,7.43,6.93c1.12,1,2.28,1.95,3.51,3l0,0a.85.85,0,0,0,1.12,0l0,0c1.23-1.08,2.39-2.07,3.51-3a66,66,0,0,0,7.43-6.93,10.78,10.78,0,0,0,3-7.06,8.75,8.75,0,0,0-2.12-5.84A7.32,7.32,0,0,0,21.8,2.19ZM18,23.25l-3,2.58-3-2.58c-5.9-5-9.79-8.34-9.79-12.7A7.1,7.1,0,0,1,3.89,5.83,5.69,5.69,0,0,1,8.2,3.89a5.71,5.71,0,0,1,4.69,2.64,9.63,9.63,0,0,1,1.3,2.58.85.85,0,0,0,1.62,0,9.93,9.93,0,0,1,1.3-2.58,5.61,5.61,0,0,1,9-.7,7.1,7.1,0,0,1,1.69,4.72c0,4.36-3.89,7.68-9.79,12.7Z"/>
  <path class="cls-1" d="M18,23.25l-3,2.58-3-2.58c-5.9-5-9.79-8.34-9.79-12.7A7.1,7.1,0,0,1,3.89,5.83,5.69,5.69,0,0,1,8.2,3.89a5.71,5.71,0,0,1,4.69,2.64,9.63,9.63,0,0,1,1.3,2.58.85.85,0,0,0,1.62,0,9.93,9.93,0,0,1,1.3-2.58,5.61,5.61,0,0,1,9-.7,7.1,7.1,0,0,1,1.69,4.72c0,4.36-3.89,7.68-9.79,12.7Z"/>
</svg>
