<?xml version="1.0" encoding="utf-8"?>
<!-- Generator: Adobe Illustrator 26.5.0, SVG Export Plug-In . SVG Version: 6.00 Build 0)  -->
<svg version="1.1" id="Layer_1" xmlns="http://www.w3.org/2000/svg" xmlns:xlink="http://www.w3.org/1999/xlink" x="0px" y="0px"
	 viewBox="0 0 270 270" style="enable-background:new 0 0 270 270;" xml:space="preserve">
<style type="text/css">
	.st0{fill:none;stroke:#000000;stroke-width:5.84;stroke-linecap:round;stroke-miterlimit:10;}
</style>
<path class="st0" d="M135.9,255c1.7,0,3.1-0.3,4.2-0.9c50.6-29.2,84.7-60.2,107.5-97.4c15.6-25.5,21.3-50,17.4-74.8
	c-4.7-29.7-21.5-50.6-48.6-60.3c-8.3-3-16.6-4.5-24.6-4.5c-17.4,0-33.7,7-48.5,20.8c-3.9,3.6-6.2,5.7-7.8,5.7h-0.4
	c-1.6,0-3.9-2.1-7.8-5.7C112.3,24,96,17,78.6,17c-8,0-16.3,1.5-24.6,4.5C26.9,31.2,10.1,52.1,5.4,81.8c-3.9,24.8,1.8,49.3,17.4,74.8
	c22.8,37.2,56.9,68.2,107.5,97.4c1.1,0.6,2.5,0.9,4.2,0.9H135.9L135.9,255z"/>
</svg>
