<?xml version="1.0" encoding="UTF-8"?><svg id="Layer_1" xmlns="http://www.w3.org/2000/svg" viewBox="0 0 150 150"><defs><style>.cls-1{fill:#fff;}.cls-2{fill:none;stroke:#000;stroke-miterlimit:10;stroke-width:2.83px;}</style></defs><circle class="cls-1" cx="75.45" cy="74.45" r="57.83"/><path d="M91.42,39.19H58.58c-10.69,0-19.38,8.7-19.38,19.38v32.84c0,10.69,8.7,19.38,19.38,19.38h32.84c10.69,0,19.38-8.7,19.38-19.38V58.58c0-10.69-8.7-19.38-19.38-19.38h0Zm15.19,52.23c0,8.37-6.81,15.19-15.19,15.19H58.58c-8.37,0-15.19-6.81-15.19-15.19V58.58c0-8.37,6.81-15.19,15.19-15.19h32.84c8.37,0,15.19,6.81,15.19,15.19v32.84Zm0,0-15.19,19.56H58.58c-10.78,0-19.56-8.78-19.56-19.56V58.58c0-10.78,8.77-19.56,19.56-19.56h32.84c10.78,0,19.56,8.78,19.56,19.56v32.84c0,10.78-8.77,19.56-19.56,19.56ZM58.58,39.37c-10.59,0-19.21,8.62-19.21,19.21v32.84c0,10.59,8.62,19.21,19.21,19.21h32.84c10.59,0,19.21-8.62,19.21-19.21V58.58c0-10.59-8.62-19.21-19.21-19.21H58.58Zm32.84,67.41H58.58c-8.47,0-15.36-6.89-15.36-15.36V58.58c0-8.47,6.89-15.36,15.36-15.36h32.84c8.47,0,15.36,6.89,15.36,15.36v32.84c0,8.47-6.89,15.36-15.36,15.36ZM58.58,43.57c-8.28,0-15.01,6.73-15.01,15.01v32.84c0,8.28,6.73,15.01,15.01,15.01h32.84c8.28,0,15.01-6.73,15.01-15.01V58.58c0-8.28-6.73-15.01-15.01-15.01H58.58Zm16.42,11.85c-10.8,0-19.58,8.78-19.58,19.58s8.78,19.58,19.58,19.58,19.58-8.78,19.58-19.58-8.78-19.58-19.58-19.58h0Zm0,34.96c-8.48,0-15.38-6.9-15.38-15.38s6.9-15.38,15.38-15.38,15.38,6.9,15.38,15.38-6.9,15.38-15.38,15.38h0Zm0,0,0,4.37c-10.89,0-19.75-8.86-19.75-19.75s8.86-19.75,19.75-19.75,19.75,8.86,19.75,19.75-8.86,19.75-19.75,19.75Zm0-39.16c-10.7,0-19.41,8.7-19.41,19.41s8.7,19.41,19.41,19.41,19.41-8.7,19.41-19.41-8.7-19.41-19.41-19.41Zm0,34.96c-8.58,0-15.56-6.98-15.56-15.56s6.98-15.56,15.56-15.56,15.56,6.98,15.56,15.56-6.98,15.56-15.56,15.56Zm0-30.76c-8.39,0-15.21,6.82-15.21,15.21s6.82,15.21,15.21,15.21,15.21-6.82,15.21-15.21-6.82-15.21-15.21-15.21Zm20.05-11.33c-3.19,0-5.79,2.6-5.79,5.79s2.6,5.79,5.79,5.79,5.79-2.6,5.79-5.79-2.59-5.79-5.79-5.79h0Zm0,7.37c-.88,0-1.59-.71-1.59-1.59s.71-1.59,1.59-1.59,1.59,.71,1.59,1.59-.71,1.59-1.59,1.59h0Zm0,0,0,4.37c-3.29,0-5.96-2.67-5.96-5.96s2.67-5.96,5.96-5.96,5.96,2.67,5.96,5.96-2.67,5.96-5.96,5.96Zm0-11.57c-3.09,0-5.61,2.52-5.61,5.61s2.52,5.61,5.61,5.61,5.61-2.52,5.61-5.61-2.52-5.61-5.61-5.61Zm0,7.37c-.97,0-1.76-.79-1.76-1.76s.79-1.76,1.76-1.76,1.76,.79,1.76,1.76-.79,1.76-1.76,1.76Zm0-3.18c-.78,0-1.41,.63-1.41,1.41s.63,1.41,1.41,1.41,1.41-.63,1.41-1.41-.63-1.41-1.41-1.41Z"/><circle class="cls-2" cx="75" cy="75" r="57.84"/></svg>