<?xml version="1.0" encoding="UTF-8"?><svg id="Layer_1" xmlns="http://www.w3.org/2000/svg" viewBox="0 0 150 150"><defs><style>.cls-1{fill:#fff;}.cls-2{fill:none;stroke:#000;stroke-miterlimit:10;stroke-width:2.83px;}</style></defs><circle class="cls-1" cx="74.56" cy="75.4" r="57.83"/><path d="M90.71,63.69c0,1.6,0,3.25,0,4.91,0,8.76,0,13.14,0,13.45,.03,9.83,.11,11.44-.8,14.42-.99,3.23-2.34,5.46-2.79,6.17-1.1,1.74-4.15,6.04-9.85,8.91-1.87,.94-3.9,1.65-6.11,2.09-4.58,.92-9.08,.62-13.54-.62-3.82-1.06-6.68-3.6-9.48-6.21-3.12-2.9-5.06-6.58-6.3-10.56-1.04-3.31-1.34-6.71-.8-10.27,.9-6,3.54-11.02,7.85-15.12,3.36-3.19,7.45-5.18,12.02-6.17,2.31-.5,4.61-.53,6.94-.45,1.46,.05,1.79,.36,1.81,1.79,.05,3.65,.05,7.31,0,10.96-.02,1.44-.3,1.59-1.86,1.35-6.75-1.05-12.46,3.89-12.99,10.33-.43,5.18,3.86,10.23,8.51,11.02,5.52,.94,10.87-2.26,12.35-6.55,.57-1.65,.9-3.35,.89-5.1-.02-16.94-.03-33.88-.09-50.81,0-1.04,.34-1.37,1.23-1.37,3.41-.01,6.83-.04,10.24,0,1.36,.02,1.58,.32,1.76,1.85,.34,2.91,1.15,5.7,2.59,8.25,2.16,3.83,5.71,5.93,9.75,7.27,1.88,.62,3.85,1.02,5.8,1.4,.86,.17,1.38,.43,1.37,1.38-.02,3.74,0,7.47-.01,11.21,0,.89-.49,1.41-1.37,1.45-1.07,.05-2.14,.06-3.22-.18-3.79-.84-8.07-3.27-12.38-4.43-.68-.18-1.23-.31-1.53-.38Z"/><circle class="cls-2" cx="75" cy="75" r="57.84"/></svg>