<?xml version="1.0" encoding="UTF-8"?><svg id="Layer_1" xmlns="http://www.w3.org/2000/svg" viewBox="0 0 97.53 50"><defs><style>.cls-1{fill:#f3b5c6;}</style></defs><g id="Lager_2"><g id="Layer_1-2"><rect class="cls-1" x="10.27" y="10.14" width="76.59" height="30.98" rx="8.99" ry="8.99"/><path d="M71.6,23.72c-2.17-1.48-5.12-.92-6.59,1.25-1.48,2.17-.92,5.12,1.25,6.59,1.61,1.1,3.73,1.1,5.34,0v.57h2.69v-8.99h-2.69v.58Zm-2.45,6.23c-1.28-.07-2.26-1.16-2.19-2.44,.07-1.28,1.16-2.26,2.44-2.19,1.23,.07,2.19,1.08,2.19,2.31-.04,1.31-1.13,2.35-2.44,2.31Z"/><rect x="31.87" y="19.14" width="2.82" height="13"/><path d="M59.41,22.9c-1.07-.06-2.11,.41-2.77,1.25v-1.01h-2.68v8.99h2.71v-4.72c-.08-1.04,.7-1.96,1.75-2.04,.09,0,.18,0,.28,0,1.18,0,1.86,.71,1.86,2.02v4.74h2.69v-5.72c0-2.09-1.66-3.52-3.83-3.52Z"/><path d="M43.2,23.72c-2.17-1.48-5.12-.92-6.59,1.25-1.48,2.17-.92,5.12,1.25,6.59,1.61,1.1,3.73,1.1,5.34,0v.57h2.69v-8.99h-2.69v.58Zm-2.45,6.23c-1.28-.07-2.26-1.16-2.19-2.44,.07-1.28,1.16-2.26,2.44-2.19,1.23,.07,2.19,1.08,2.19,2.31-.04,1.31-1.13,2.35-2.44,2.31h0Z"/><path d="M50.06,24.31v-1.17h-2.76v8.99h2.76v-4.2c0-1.42,1.54-2.18,2.6-2.18,.01,0,.02,0,.03,0v-2.62c-1.01-.03-1.98,.4-2.64,1.17Z"/><path d="M77.15,28.95c-.93,0-1.69,.76-1.69,1.69,0,.93,.76,1.69,1.69,1.69,.93,0,1.69-.76,1.69-1.69,0-.93-.76-1.69-1.69-1.69h0Z"/><path d="M29.93,19.13h-2.92c0,2.37-1.11,4.61-3.02,6.03l-1.16,.87,4.48,6.11h3.68l-4.12-5.62c1.96-1.95,3.06-4.61,3.05-7.38Z"/><rect x="19.55" y="19.13" width="2.92" height="13"/></g></g></svg>