<?xml version="1.0" encoding="UTF-8"?><svg id="Layer_1" xmlns="http://www.w3.org/2000/svg" viewBox="0 0 60.8 50"><defs><style>.cls-1{fill:none;}.cls-2{fill:#7377c8;}.cls-3{fill:#d72e2b;}.cls-4{fill:#47a0de;}</style></defs><rect class="cls-1" x="7.75" y="8.21" width="45.3" height="37.23"/><g><path d="M23.29,40.69v-1.85c.04-.6-.41-1.13-1.02-1.17-.05,0-.09,0-.14,0-.41-.03-.81,.17-1.04,.52-.2-.34-.58-.54-.97-.52-.34-.02-.67,.15-.86,.44v-.36h-.64v2.95h.65v-1.63c-.05-.38,.21-.72,.59-.78,.04,0,.09,0,.13,0,.43,0,.64,.28,.64,.78v1.64h.65v-1.63c-.05-.38,.22-.73,.6-.78,.04,0,.08,0,.12,0,.44,0,.65,.28,.65,.78v1.64h.65Zm3.61-1.47v-1.47h-.64v.36c-.22-.29-.57-.45-.93-.43-.85,.04-1.51,.77-1.47,1.62,.04,.8,.68,1.43,1.47,1.47,.36,.02,.71-.15,.93-.43v.36h.64v-1.47Zm-2.39,0c.03-.49,.45-.87,.94-.84,.49,.03,.87,.45,.84,.94-.03,.47-.42,.84-.89,.84-.49,0-.89-.38-.9-.87,0-.02,0-.05,0-.07Zm16.1-1.55c.22,0,.43,.04,.63,.12,.19,.07,.36,.19,.5,.33,.14,.14,.26,.31,.33,.49,.16,.39,.16,.84,0,1.23-.08,.18-.19,.35-.33,.49-.14,.14-.32,.25-.5,.33-.41,.16-.86,.16-1.26,0-.19-.07-.36-.19-.5-.33-.14-.14-.25-.31-.33-.49-.16-.39-.16-.84,0-1.23,.08-.18,.19-.35,.33-.49,.14-.14,.31-.25,.5-.33,.2-.08,.42-.12,.63-.12Zm0,.61c-.13,0-.25,.02-.37,.07-.11,.04-.21,.11-.29,.19-.08,.09-.15,.19-.19,.3-.09,.25-.09,.52,0,.77,.04,.11,.11,.21,.19,.3,.08,.08,.18,.15,.29,.19,.24,.09,.5,.09,.73,0,.11-.04,.21-.11,.29-.19,.08-.09,.15-.19,.2-.3,.09-.25,.09-.52,0-.77-.04-.11-.11-.21-.2-.3-.08-.08-.18-.15-.29-.19-.12-.05-.24-.07-.37-.07Zm-10.23,.94c0-.92-.57-1.55-1.4-1.55-.85,.04-1.51,.77-1.47,1.63,.04,.81,.7,1.45,1.51,1.47,.44,.02,.87-.13,1.21-.41l-.31-.47c-.24,.2-.54,.3-.86,.31-.44,.04-.83-.28-.88-.72h2.19c0-.08,.01-.16,.01-.25Zm-2.19-.26c.02-.41,.37-.73,.78-.71,.4,0,.74,.31,.75,.71h-1.53Zm4.89-.46c-.28-.16-.6-.25-.92-.25-.35,0-.56,.13-.56,.35,0,.2,.22,.25,.5,.29l.3,.04c.64,.09,1.03,.36,1.03,.88,0,.56-.49,.96-1.34,.96-.46,.01-.9-.12-1.28-.38l.3-.5c.28,.21,.63,.32,.98,.31,.44,0,.67-.13,.67-.36,0-.17-.17-.26-.52-.31l-.3-.04c-.66-.09-1.02-.39-1.02-.87,0-.59,.48-.94,1.23-.94,.42-.01,.84,.09,1.2,.31l-.28,.52Zm3.08-.17h-1.05v1.33c0,.3,.1,.49,.43,.49,.2,0,.4-.06,.57-.17l.18,.55c-.24,.15-.52,.23-.8,.23-.76,0-1.02-.41-1.02-1.09v-1.34h-.6v-.59h.6v-.89s.65,0,.65,0v.89h1.05v.59Zm2.22-.66c.16,0,.31,.03,.46,.08l-.2,.6c-.13-.05-.26-.08-.4-.07-.42,0-.63,.27-.63,.76v1.65h-.64v-2.95h.63v.36c.16-.28,.46-.44,.78-.43h0Zm4.44,2.59s.08,0,.12,.02c.04,.01,.07,.04,.09,.06,.03,.03,.05,.06,.06,.09,.03,.07,.03,.15,0,.23-.02,.03-.04,.07-.06,.09-.03,.03-.06,.05-.09,.06-.04,.02-.08,.02-.12,.02-.12,0-.23-.07-.28-.18-.03-.07-.03-.15,0-.23,.02-.03,.04-.07,.06-.09,.03-.03,.06-.05,.1-.06,.04-.02,.08-.02,.12-.02Zm0,.52s.06,0,.09-.02c.03-.01,.05-.03,.07-.05,.09-.09,.09-.23,0-.32-.02-.02-.05-.04-.07-.05-.03-.01-.06-.02-.09-.02-.03,0-.06,0-.09,.02-.03,.01-.05,.03-.07,.05-.09,.09-.09,.23,0,.32,.04,.04,.1,.07,.16,.07Zm.02-.37s.06,0,.08,.02c.02,.02,.03,.04,.03,.06,0,.02,0,.04-.02,.06-.02,.02-.04,.03-.06,.03l.09,.1h-.07l-.08-.1h-.03v.1h-.06v-.27h.13Zm-.07,.05v.07h.07s.03,0,.04,0c0,0,.01-.02,.01-.03,0-.01,0-.02-.01-.03-.01,0-.02,0-.04,0h-.07Z"/><g><rect class="cls-2" x="25.53" y="15.26" width="9.72" height="17.47"/><path class="cls-3" d="M26.15,23.99c0-3.41,1.56-6.63,4.24-8.73-4.82-3.79-11.81-2.96-15.6,1.87s-2.96,11.81,1.87,15.6c4.03,3.17,9.7,3.17,13.73,0-2.68-2.1-4.25-5.33-4.24-8.73Z"/><path class="cls-4" d="M47.31,30.88v-.36h.14v-.07h-.37v.07h.14v.36h.08Zm.71,0v-.43h-.11l-.13,.3-.13-.3h-.11v.43h.08v-.33l.12,.28h.08l.12-.28v.33h.08Z"/><path class="cls-4" d="M48.37,23.99c0,6.14-4.97,11.11-11.11,11.11-2.49,0-4.91-.84-6.87-2.38,4.82-3.79,5.66-10.78,1.87-15.6-.55-.69-1.17-1.32-1.87-1.87,4.82-3.79,11.81-2.96,15.6,1.87,1.54,1.96,2.38,4.38,2.38,6.87Z"/></g></g></svg>