<?xml version="1.0" encoding="UTF-8"?><svg id="Layer_1" xmlns="http://www.w3.org/2000/svg" viewBox="0 0 60.8 50"><defs><style>.cls-1{fill:none;}.cls-2{fill:#ec692c;}.cls-3{fill:#eaa040;}.cls-4{fill:#d72e2b;}</style></defs><rect class="cls-1" x="6.48" y="7.33" width="47.04" height="33.33"/><g><rect class="cls-2" x="25.12" y="15.26" width="9.72" height="17.47"/><path class="cls-4" d="M25.74,23.99c0-3.41,1.56-6.63,4.24-8.73-4.82-3.79-11.81-2.96-15.6,1.87-3.79,4.82-2.96,11.81,1.87,15.6,4.03,3.17,9.7,3.17,13.73,0-2.68-2.1-4.25-5.33-4.24-8.73Z"/><path class="cls-3" d="M47.96,23.99c0,6.14-4.97,11.11-11.11,11.11-2.49,0-4.91-.84-6.87-2.38,4.82-3.79,5.66-10.78,1.87-15.6-.55-.69-1.17-1.32-1.87-1.87,4.82-3.79,11.81-2.96,15.6,1.87,1.54,1.96,2.38,4.38,2.38,6.87Z"/><path class="cls-3" d="M46.9,30.88v-.36h.14v-.07h-.37v.07h.14v.36h.08Zm.71,0v-.43h-.11l-.13,.3-.13-.3h-.11v.43h.08v-.33l.12,.28h.08l.12-.28v.33h.08Z"/></g></svg>