<?xml version="1.0" encoding="UTF-8"?><svg id="Layer_1" xmlns="http://www.w3.org/2000/svg" viewBox="0 0 107.25 50"><defs><style>.cls-1{fill:#8d97b9;}.cls-2{fill:#bfc4d7;}.cls-3{fill:#242e61;}.cls-4{fill:#293c7b;}.cls-5{fill:#293c7c;}.cls-6{fill:#48588e;}.cls-7{fill:#4899d1;}</style></defs><path class="cls-4" d="M21.09,15.01c.91,.06,1.8,.2,2.65,.56,1.23,.51,2.04,1.4,2.37,2.71,.14,.55,.13,1.12,.08,1.68-.02,.16-.06,.31-.05,.47-.01,0-.02,0-.03,0-.03-.04-.07-.05-.11-.07-.35-.18-.72-.31-1.1-.4-.58-.13-1.17-.22-1.77-.22-1.9,0-3.79,0-5.69,0-.38,0-.77,.34-.81,.67-.02,.16-.05,.31-.07,.47-.07,.48-.15,.96-.23,1.44-.06,.4-.13,.8-.19,1.21-.06,.38-.12,.76-.18,1.14-.07,.42-.13,.84-.19,1.26-.07,.44-.15,.88-.22,1.32,0,.04-.01,.08,.03,.11-.13,.33-.14,.69-.2,1.03-.08,.48-.15,.96-.23,1.44-.06,.38-.12,.76-.18,1.14-.08,.49-.15,.98-.23,1.46-.07,.44-.15,.87-.22,1.31-.03,.19-.03,.19-.22,.19-1.27,0-2.55,0-3.82,0-.06,0-.11,0-.17,0-.34-.07-.52-.34-.47-.68,.32-2.02,.64-4.04,.96-6.06,.31-1.95,.62-3.89,.92-5.84,.29-1.85,.59-3.7,.88-5.55,.07-.42,.31-.69,.72-.79,.01,0,.02-.02,.04-.03,2.36,0,4.71,0,7.07,0,.09,.05,.18,.05,.27,0h.03c.06,.06,.14,.03,.21,.03,.06,0,.11,0,.17,0Z"/><path class="cls-6" d="M20.67,14.98c-.09,.05-.18,.05-.27,0h.27Z"/><path class="cls-1" d="M20.92,15.01c-.07,0-.15,.03-.21-.03h.21s0,.02,0,.03Z"/><path class="cls-2" d="M20.92,15.01s0-.02,0-.03h.17s0,.02,0,.03c-.06,0-.11,0-.17,0Z"/><path class="cls-7" d="M75.06,28.71c-.37,0-.61,0-.86,0-.4,0-.65,.23-.71,.62-.15,.98-.31,1.97-.47,2.95-.03,.17-.05,.34-.08,.51-.04,.23-.21,.39-.45,.39-.83,0-1.67,0-2.5,0-.26,0-.43-.22-.39-.48,.23-1.46,.47-2.92,.7-4.39,.21-1.3,.41-2.6,.62-3.9,.21-1.34,.42-2.68,.63-4.02,.06-.42,.33-.65,.75-.65,1.64,0,3.28,0,4.92,0,.82,0,1.62,.12,2.36,.47,.98,.46,1.57,1.24,1.67,2.32,.15,1.55-.18,3-1.09,4.28-.66,.92-1.59,1.44-2.67,1.69-.45,.11-.91,.16-1.37,.18-.39,.01-.78,.02-1.05,.02Zm-1.04-2.69c.7-.02,1.38,.04,2.05-.08,.61-.11,1.11-.39,1.36-.99,.2-.46,.27-.94,.2-1.44-.05-.41-.28-.71-.66-.87-.19-.08-.39-.13-.59-.15-.47-.06-.95-.04-1.42-.04-.27,0-.4,.12-.45,.39-.06,.4-.13,.8-.19,1.2-.1,.65-.21,1.3-.31,1.98Z"/><path class="cls-5" d="M40.46,19.75c.74,0,1.48,0,2.21,0,.77,.01,1.53,.11,2.24,.42,1.05,.46,1.69,1.25,1.79,2.39,.14,1.62-.21,3.13-1.24,4.44-.64,.82-1.53,1.27-2.52,1.51-.6,.14-1.22,.19-1.84,.19-.46,0-.93,0-1.39,0-.46,0-.7,.2-.77,.65-.17,1.08-.34,2.15-.51,3.23-.06,.36-.32,.59-.68,.59-.75,0-1.51,0-2.26,0-.31,0-.47-.2-.42-.52,.25-1.56,.49-3.12,.74-4.68,.22-1.41,.45-2.82,.67-4.22,.18-1.11,.35-2.22,.52-3.33,.07-.45,.31-.68,.77-.68,.9,0,1.79,0,2.69,0h0Zm-.99,6.26c.39,0,.77,0,1.15,0,.3,0,.59-.02,.89-.07,.69-.12,1.21-.46,1.45-1.15,.14-.4,.2-.82,.15-1.25-.05-.42-.27-.73-.66-.91-.12-.05-.25-.09-.37-.12-.57-.11-1.15-.08-1.73-.07-.2,0-.32,.15-.36,.37-.17,1.06-.34,2.12-.51,3.2Z"/><path class="cls-7" d="M26.1,20.44s.02,0,.03,0c.43,.19,.78,.49,1.06,.86,.42,.55,.64,1.18,.68,1.87,.1,1.63-.26,3.15-1.11,4.55-.76,1.25-1.89,2-3.29,2.38-.62,.17-1.25,.25-1.89,.29-.35,.02-.71,.02-1.06,.02-.45,0-.78,.27-.85,.71-.12,.72-.23,1.44-.35,2.16-.13,.78-.25,1.56-.38,2.35-.07,.43-.4,.71-.84,.71-1.13,0-2.26,0-3.4,0-.37,0-.58-.25-.53-.63,.06-.38,.12-.77,.18-1.15,.02-.14,.04-.27,.06-.41,.03-.17,.03-.17-.15-.17-.65,0-1.3,0-1.96,0s-1.25,0-1.87,0c-.06,0-.13,.02-.18-.02,.06,0,.11,0,.17,0,1.27,0,2.55,0,3.82,0,.2,0,.2,0,.22-.19,.07-.44,.15-.87,.22-1.31,.08-.49,.15-.97,.23-1.46,.06-.38,.12-.76,.18-1.14,.08-.48,.15-.96,.23-1.44,.06-.35,.07-.7,.2-1.03,.22-.37,.54-.52,.97-.52,.62,.01,1.23,0,1.85,0,.59,0,1.18-.05,1.77-.13,.92-.14,1.8-.4,2.61-.86,.67-.38,1.25-.86,1.73-1.46,.58-.72,.98-1.53,1.26-2.41,.16-.5,.28-1.02,.34-1.54Z"/><path class="cls-5" d="M53.09,32.13c-.44,.4-.92,.72-1.46,.93-1.11,.44-2.23,.48-3.35,.07-1.13-.41-1.77-1.27-2.08-2.4-.37-1.37-.13-2.68,.52-3.91,.73-1.38,1.86-2.3,3.38-2.68,.97-.24,1.95-.2,2.9,.11,.45,.15,.83,.41,1.09,.82,.02,.03,.03,.07,.09,.1,.03-.2,.06-.39,.1-.58,.05-.25,.18-.37,.43-.37,.75,0,1.5,0,2.25,0,.31,0,.48,.2,.43,.52-.23,1.49-.47,2.97-.7,4.46-.18,1.13-.36,2.26-.54,3.39-.06,.37-.31,.58-.69,.58-.67,0-1.35,0-2.02,0-.31,0-.48-.21-.43-.51,.03-.18,.06-.36,.09-.54Zm-3.9-3c0,.07,0,.18,.02,.28,.08,.61,.37,1.09,.95,1.33,.88,.37,1.73,.27,2.51-.25,.76-.51,1.12-1.27,1.13-2.17,0-.93-.55-1.61-1.46-1.8-.44-.09-.88-.06-1.3,.07-1.09,.33-1.8,1.3-1.84,2.54Z"/><path class="cls-7" d="M88.72,25.2c.04-.22,.07-.41,.1-.6,.04-.25,.18-.37,.43-.37,.75,0,1.5,0,2.25,0,.31,0,.48,.21,.43,.52-.16,.99-.31,1.98-.47,2.97-.16,.98-.31,1.96-.47,2.94-.1,.66-.2,1.32-.31,1.97-.06,.34-.32,.55-.66,.55-.69,0-1.37,0-2.06,0-.3,0-.47-.21-.42-.51,.03-.18,.06-.36,.09-.56-.1,.05-.15,.13-.22,.18-.79,.66-1.7,1.04-2.73,1.09-.68,.04-1.34-.03-1.96-.29-.95-.39-1.54-1.11-1.88-2.06-.32-.89-.32-1.8-.13-2.71,.22-1.04,.69-1.96,1.43-2.72,.83-.86,1.83-1.39,3.02-1.55,.78-.1,1.55-.06,2.3,.18,.5,.16,.92,.43,1.2,.88,.01,.02,.03,.04,.06,.08Zm-4.98,3.91c0,.06,0,.13,0,.19,.03,.71,.46,1.28,1.14,1.52,.42,.14,.85,.16,1.28,.09,1.4-.24,2.35-1.52,2.14-2.93-.09-.65-.45-1.11-1.07-1.36-.44-.18-.9-.2-1.36-.11-1.28,.26-2.13,1.3-2.13,2.6Z"/><path class="cls-4" d="M63.25,29.24c.12-.17,.22-.32,.33-.48,.94-1.38,1.88-2.75,2.81-4.14,.19-.28,.42-.41,.76-.4,.72,.01,1.44,0,2.16,0,.19,0,.33,.07,.42,.24,.08,.16,.02,.31-.08,.45-.46,.66-.91,1.31-1.37,1.97-2.08,3-4.16,5.99-6.23,8.99-.22,.31-.47,.46-.86,.45-.69-.02-1.37,0-2.06,0-.12,0-.24-.01-.34-.1-.17-.15-.2-.36-.05-.57,.32-.46,.65-.92,.98-1.38,.44-.62,.88-1.25,1.33-1.87,.06-.09,.07-.16,.04-.27-.82-2.4-1.63-4.81-2.47-7.21-.17-.48,.06-.73,.5-.71,.66,.03,1.33,.02,1.99,0,.42,0,.69,.17,.82,.61,.42,1.42,.85,2.84,1.27,4.26,.01,.04,.03,.08,.05,.14Z"/><path class="cls-7" d="M93.7,33.18c-.32,0-.64,0-.96,0-.33,0-.49-.19-.44-.52,.07-.45,.14-.9,.21-1.35,.12-.77,.24-1.54,.37-2.31,.14-.91,.29-1.82,.43-2.73,.14-.9,.28-1.8,.42-2.7,.14-.92,.29-1.83,.44-2.75,.04-.23,.07-.46,.11-.69,.04-.23,.18-.36,.41-.36,.74,0,1.47,0,2.21,0,.27,0,.44,.19,.41,.46-.04,.35-.1,.69-.15,1.03-.13,.84-.27,1.68-.4,2.51-.14,.91-.29,1.81-.43,2.72-.13,.83-.26,1.65-.39,2.48-.14,.91-.29,1.82-.43,2.73-.05,.31-.09,.62-.15,.93-.06,.35-.31,.56-.67,.56-.33,0-.65,0-.98,0Z"/><path class="cls-3" d="M26.1,20.44c-.07,.53-.18,1.04-.34,1.54-.28,.88-.68,1.69-1.26,2.41-.48,.6-1.06,1.08-1.73,1.46-.81,.46-1.69,.72-2.61,.86-.59,.09-1.18,.14-1.77,.13-.62,0-1.23,0-1.85,0-.43,0-.75,.15-.97,.52-.04-.03-.04-.07-.03-.11,.07-.44,.15-.88,.22-1.32,.07-.42,.13-.84,.19-1.26,.06-.38,.12-.76,.18-1.14,.06-.4,.13-.8,.19-1.21,.08-.48,.16-.96,.23-1.44,.02-.16,.05-.31,.07-.47,.04-.33,.43-.68,.81-.67,1.9,.02,3.79,0,5.69,0,.6,0,1.19,.08,1.77,.22,.38,.09,.75,.22,1.1,.4,.04,.02,.09,.03,.11,.07Z"/></svg>