<?xml version="1.0" encoding="UTF-8"?><svg id="Layer_1" xmlns="http://www.w3.org/2000/svg" viewBox="0 0 60.8 50"><defs><style>.cls-1{fill:#1b39c3;}</style></defs><path class="cls-1" d="M24.39,20.09l-5.29,12.62h-3.45l-2.6-10.07c-.16-.62-.3-.85-.78-1.11-.78-.43-2.08-.83-3.22-1.07l.08-.37h5.56c.71,0,1.34,.47,1.51,1.29l1.38,7.31,3.4-8.59h3.43Zm13.53,8.5c.01-3.33-4.61-3.52-4.58-5,0-.45,.44-.93,1.39-1.06,.47-.06,1.76-.11,3.22,.56l.57-2.68c-.79-.29-1.8-.56-3.05-.56-3.23,0-5.5,1.72-5.52,4.17-.02,1.82,1.62,2.83,2.86,3.44,1.27,.62,1.7,1.02,1.7,1.57,0,.85-1.02,1.22-1.96,1.24-1.64,.03-2.59-.44-3.35-.8l-.59,2.77c.76,.35,2.17,.66,3.63,.67,3.43,0,5.68-1.69,5.69-4.32m8.52,4.12h3.02l-2.64-12.62h-2.79c-.63,0-1.16,.36-1.39,.93l-4.9,11.7h3.43l.68-1.89h4.19l.39,1.89Zm-3.64-4.47l1.72-4.74,.99,4.74h-2.71Zm-13.74-8.15l-2.7,12.62h-3.27l2.7-12.62h3.26Z"/></svg>