<?xml version="1.0" encoding="UTF-8"?><svg id="Layer_1" xmlns="http://www.w3.org/2000/svg" viewBox="0 0 60.8 50"><defs><style>.cls-1{fill:#1a216d;}</style></defs><path class="cls-1" d="M24.86,20.08l-5.28,12.6h-3.45l-2.6-10.06c-.16-.62-.29-.85-.77-1.11-.78-.43-2.08-.82-3.22-1.07l.08-.37h5.55c.71,0,1.34,.47,1.5,1.28l1.37,7.29,3.39-8.58h3.42Zm4.66,0l-2.7,12.6h-3.26l2.7-12.6h3.26Zm8.84,8.49c.01-3.32-4.6-3.51-4.57-4.99,.01-.45,.44-.93,1.38-1.06,.47-.06,1.76-.11,3.21,.56l.57-2.67c-.78-.28-1.79-.56-3.05-.56-3.22,0-5.49,1.71-5.51,4.16-.02,1.81,1.62,2.83,2.85,3.43,1.27,.62,1.7,1.01,1.69,1.57,0,.85-1.01,1.22-1.95,1.23-1.64,.03-2.59-.44-3.35-.8l-.59,2.76c.76,.35,2.17,.65,3.62,.67,3.43,0,5.67-1.69,5.68-4.31h0Zm8.51,4.11h3.01l-2.63-12.6h-2.78c-.63,0-1.15,.36-1.39,.92l-4.89,11.68h3.42l.68-1.88h4.18l.4,1.88Zm-3.64-4.46l1.72-4.73,.99,4.73h-2.7Zm-9.54,7.93h-1.32v1.23h1.48v.37h-1.93v-3.42h1.85v.37h-1.41v1.08h1.32v.37Zm.84-2h.45v3.6h-.45v-3.6Zm1.57,2.46c.01,.6,.39,.85,.84,.85,.32,0,.52-.06,.68-.13l.08,.32c-.16,.07-.43,.16-.82,.16-.76,0-1.21-.5-1.21-1.24s.44-1.32,1.15-1.32c.81,0,1.01,.7,1.01,1.15,0,.09,0,.16-.02,.21h-1.72Zm1.31-.32c0-.28-.12-.72-.62-.72-.46,0-.65,.41-.69,.72h1.3Zm2.86,1.38c-.12,.06-.38,.14-.71,.14-.74,0-1.22-.5-1.22-1.25s.52-1.31,1.32-1.31c.26,0,.5,.07,.62,.13l-.1,.34c-.11-.06-.27-.12-.52-.12-.56,0-.87,.42-.87,.93,0,.57,.37,.92,.85,.92,.25,0,.42-.06,.55-.12l.08,.33Zm1.25-2.96v.59h.64v.34h-.64v1.32c0,.3,.09,.48,.33,.48,.12,0,.19-.01,.26-.03l.02,.34c-.09,.03-.22,.06-.4,.06-.21,0-.38-.07-.48-.19-.12-.14-.17-.36-.17-.64v-1.34h-.38v-.34h.38v-.46l.44-.13Zm1.26,1.35c0-.29,0-.54-.02-.77h.39l.02,.49h.01c.11-.33,.39-.54,.68-.54,.05,0,.08,0,.12,.01v.42s-.09-.01-.15-.01c-.31,0-.54,.23-.6,.57-.01,.06-.02,.14-.02,.21v1.31h-.45v-1.69Zm3.96,.44c0,.91-.63,1.3-1.22,1.3-.66,0-1.18-.49-1.18-1.26,0-.82,.54-1.3,1.22-1.3s1.18,.51,1.18,1.26Zm-1.94,.03c0,.54,.3,.94,.74,.94s.75-.4,.75-.95c0-.42-.21-.94-.74-.94s-.75,.49-.75,.95Zm2.63-.57c0-.26,0-.46-.02-.66h.4l.03,.41h.01c.12-.23,.41-.46,.81-.46,.34,0,.87,.2,.87,1.04v1.46h-.45v-1.42c0-.4-.15-.73-.57-.73-.29,0-.52,.21-.6,.46-.02,.06-.03,.13-.03,.21v1.48h-.45v-1.79Z"/></svg>